<?xml version="1.0" encoding="utf-8"?>
<!-- Generator: Adobe Illustrator 23.0.1, SVG Export Plug-In . SVG Version: 6.00 Build 0)  -->
<svg version="1.1" id="Layer_1" xmlns="http://www.w3.org/2000/svg" xmlns:xlink="http://www.w3.org/1999/xlink" x="0px" y="0px"
	 viewBox="0 0 424.72 91.89" style="enable-background:new 0 0 424.72 91.89;" xml:space="preserve">
<style type="text/css">
	.st0{fill:#ED2224;}
	.st1{fill:#CCCCCC;}
	.st2{fill:#998776;stroke:#998776;stroke-width:0.7502;stroke-miterlimit:10;}
	.st3{fill:#ED2224;stroke:#ED2224;stroke-width:0.7502;stroke-miterlimit:10;}
	.st4{fill:#CCCCCC;stroke:#CCCCCC;stroke-width:0.7502;stroke-miterlimit:10;}
	.st5{font-family:'Tahoma-Bold';}
	.st6{font-size:35.137px;}
	.st7{fill:#998776;}
</style>
<g>
	<path class="st0" d="M20.31,57.61c-1.48,0-2.77-0.14-3.89-0.43c-1.12-0.28-2.15-0.64-3.11-1.06v-4.58h0.44
		c0.97,0.82,2.03,1.45,3.2,1.89c1.16,0.44,2.3,0.66,3.39,0.66c0.28,0,0.64-0.03,1.09-0.09c0.45-0.06,0.82-0.16,1.09-0.28
		c0.34-0.15,0.62-0.35,0.85-0.61c0.23-0.26,0.35-0.61,0.35-1.04c0-0.48-0.19-0.88-0.57-1.18c-0.38-0.3-0.83-0.52-1.36-0.66
		c-0.66-0.17-1.36-0.34-2.1-0.49c-0.75-0.16-1.44-0.35-2.09-0.57c-1.49-0.53-2.56-1.23-3.21-2.12c-0.65-0.89-0.97-2-0.97-3.34
		c0-1.8,0.76-3.26,2.29-4.38c1.53-1.12,3.43-1.68,5.72-1.68c1.15,0,2.29,0.12,3.42,0.35c1.13,0.23,2.15,0.55,3.05,0.94v4.4h-0.43
		c-0.72-0.61-1.59-1.13-2.62-1.55c-1.03-0.42-2.09-0.63-3.18-0.63c-0.42,0-0.8,0.03-1.14,0.09c-0.34,0.06-0.69,0.18-1.06,0.35
		c-0.3,0.14-0.56,0.34-0.78,0.61c-0.22,0.27-0.33,0.58-0.33,0.91c0,0.49,0.17,0.88,0.52,1.17c0.35,0.29,1.02,0.55,2.03,0.78
		c0.65,0.15,1.27,0.29,1.87,0.43c0.6,0.14,1.24,0.33,1.92,0.57c1.34,0.48,2.33,1.13,2.98,1.95c0.65,0.82,0.98,1.89,0.98,3.23
		c0,1.92-0.75,3.46-2.26,4.62C24.91,57.03,22.87,57.61,20.31,57.61z"/>
	<path class="st0" d="M38.33,57.65c-2.74,0-4.85-0.66-6.31-1.97c-1.46-1.31-2.19-3.18-2.19-5.6c0-2.37,0.68-4.27,2.05-5.68
		c1.36-1.42,3.27-2.12,5.72-2.12c2.23,0,3.9,0.6,5.02,1.8c1.12,1.2,1.68,2.92,1.68,5.15v1.63h-9.93c0.04,0.67,0.19,1.24,0.43,1.69
		c0.24,0.45,0.56,0.81,0.96,1.08c0.39,0.27,0.84,0.46,1.36,0.58c0.52,0.12,1.08,0.17,1.7,0.17c0.53,0,1.04-0.06,1.55-0.17
		c0.51-0.12,0.97-0.27,1.4-0.46c0.37-0.16,0.71-0.34,1.03-0.53c0.31-0.19,0.57-0.36,0.77-0.5h0.48v3.74
		c-0.37,0.15-0.71,0.28-1.02,0.41c-0.31,0.13-0.73,0.25-1.26,0.38c-0.49,0.13-1,0.23-1.52,0.3C39.71,57.61,39.08,57.65,38.33,57.65z
		 M39.83,48.12c-0.03-0.96-0.25-1.69-0.67-2.19c-0.42-0.5-1.06-0.75-1.92-0.75c-0.88,0-1.57,0.26-2.06,0.79
		c-0.5,0.53-0.77,1.24-0.82,2.15H39.83z M41.82,35.57l-3.88,5.09h-3.08l2.68-5.09H41.82z"/>
	<path class="st0" d="M60.24,57.26h-4.56v-7.21c0-0.59-0.02-1.17-0.07-1.75c-0.05-0.58-0.14-1.01-0.27-1.29
		c-0.16-0.33-0.38-0.56-0.67-0.71c-0.29-0.14-0.69-0.21-1.18-0.21c-0.37,0-0.75,0.07-1.13,0.21c-0.38,0.14-0.79,0.36-1.22,0.66v10.3
		h-4.53V42.72h4.53v1.6c0.74-0.63,1.46-1.12,2.17-1.48c0.7-0.35,1.48-0.53,2.34-0.53c1.48,0,2.62,0.47,3.4,1.4
		c0.79,0.94,1.18,2.29,1.18,4.07V57.26z"/>
	<path class="st0" d="M71.04,57.65c-2.74,0-4.85-0.66-6.31-1.97c-1.46-1.31-2.19-3.18-2.19-5.6c0-2.37,0.68-4.27,2.05-5.68
		c1.36-1.42,3.27-2.12,5.72-2.12c2.23,0,3.9,0.6,5.02,1.8c1.12,1.2,1.68,2.92,1.68,5.15v1.63h-9.93c0.04,0.67,0.19,1.24,0.43,1.69
		c0.24,0.45,0.56,0.81,0.96,1.08c0.39,0.27,0.84,0.46,1.36,0.58c0.52,0.12,1.08,0.17,1.7,0.17c0.53,0,1.04-0.06,1.55-0.17
		c0.51-0.12,0.98-0.27,1.4-0.46c0.37-0.16,0.71-0.34,1.03-0.53c0.32-0.19,0.57-0.36,0.77-0.5h0.48v3.74
		c-0.37,0.15-0.71,0.28-1.02,0.41c-0.31,0.13-0.73,0.25-1.26,0.38c-0.49,0.13-1,0.23-1.52,0.3C72.42,57.61,71.79,57.65,71.04,57.65z
		 M72.54,48.12c-0.03-0.96-0.25-1.69-0.67-2.19c-0.42-0.5-1.06-0.75-1.92-0.75c-0.88,0-1.57,0.26-2.06,0.79
		c-0.5,0.53-0.77,1.24-0.82,2.15H72.54z M74.53,35.57l-3.88,5.09h-3.08l2.68-5.09H74.53z"/>
	<path class="st1" d="M102.19,44.07c0,0.9-0.14,1.75-0.43,2.56c-0.28,0.81-0.69,1.49-1.23,2.03c-0.33,0.34-0.69,0.65-1.08,0.93
		c-0.39,0.28-0.83,0.53-1.3,0.72c-0.47,0.2-0.99,0.35-1.55,0.47c-0.56,0.11-1.18,0.17-1.87,0.17H92.2v6.3h-4.84V37.99h7.48
		c1.11,0,2.07,0.1,2.88,0.3c0.81,0.2,1.54,0.52,2.19,0.96c0.72,0.48,1.29,1.13,1.68,1.94C101.99,42,102.19,42.96,102.19,44.07z
		 M97.22,44.19c0-0.54-0.13-1.01-0.39-1.4c-0.26-0.39-0.57-0.66-0.93-0.81c-0.46-0.2-0.9-0.31-1.31-0.34
		c-0.42-0.03-0.99-0.05-1.7-0.05H92.2v5.77h0.34c0.46,0,0.89,0,1.29-0.01c0.41-0.01,0.76-0.04,1.06-0.09
		c0.26-0.04,0.53-0.13,0.82-0.25s0.51-0.27,0.67-0.42c0.33-0.32,0.55-0.65,0.67-1C97.16,45.24,97.22,44.77,97.22,44.19z"/>
	<path class="st1" d="M112.53,55.72c-0.31,0.26-0.59,0.49-0.83,0.7c-0.25,0.21-0.58,0.41-0.99,0.62c-0.41,0.2-0.8,0.35-1.18,0.45
		c-0.38,0.1-0.92,0.16-1.61,0.16c-1.29,0-2.35-0.43-3.2-1.29c-0.85-0.86-1.28-1.95-1.28-3.26c0-1.08,0.22-1.95,0.65-2.61
		c0.43-0.66,1.05-1.19,1.86-1.58c0.82-0.4,1.8-0.67,2.94-0.83c1.14-0.16,2.36-0.28,3.68-0.36v-0.08c0-0.8-0.3-1.36-0.89-1.66
		c-0.59-0.31-1.48-0.46-2.66-0.46c-0.54,0-1.16,0.1-1.88,0.29c-0.72,0.19-1.42,0.44-2.1,0.74h-0.39v-3.51
		c0.45-0.13,1.17-0.28,2.17-0.46c1-0.18,2.01-0.27,3.03-0.27c2.5,0,4.33,0.42,5.47,1.25c1.14,0.83,1.71,2.1,1.71,3.81v9.89h-4.5
		V55.72z M112.53,53.47v-3.03c-0.77,0.08-1.39,0.14-1.86,0.2c-0.47,0.06-0.94,0.17-1.4,0.33c-0.4,0.14-0.71,0.35-0.93,0.63
		c-0.22,0.28-0.33,0.65-0.33,1.12c0,0.68,0.18,1.15,0.55,1.4c0.37,0.25,0.91,0.38,1.62,0.38c0.4,0,0.8-0.09,1.22-0.27
		S112.2,53.8,112.53,53.47z"/>
	<path class="st1" d="M133.99,42.72l-5.22,14.54h-4.94l-5.18-14.54h4.76l2.98,9.62l2.94-9.62H133.99z"/>
	<path class="st1" d="M143.17,57.65c-2.74,0-4.85-0.66-6.31-1.97c-1.46-1.31-2.19-3.18-2.19-5.6c0-2.37,0.68-4.27,2.05-5.68
		c1.36-1.42,3.27-2.12,5.72-2.12c2.23,0,3.9,0.6,5.02,1.8c1.12,1.2,1.68,2.92,1.68,5.15v1.63h-9.93c0.04,0.67,0.19,1.24,0.43,1.69
		c0.24,0.45,0.56,0.81,0.96,1.08c0.39,0.27,0.84,0.46,1.36,0.58c0.52,0.12,1.08,0.17,1.7,0.17c0.53,0,1.04-0.06,1.55-0.17
		c0.51-0.12,0.97-0.27,1.4-0.46c0.37-0.16,0.71-0.34,1.03-0.53c0.32-0.19,0.57-0.36,0.77-0.5h0.48v3.74
		c-0.37,0.15-0.71,0.28-1.02,0.41c-0.31,0.13-0.73,0.25-1.26,0.38c-0.49,0.13-1,0.23-1.52,0.3
		C144.56,57.61,143.92,57.65,143.17,57.65z M144.67,48.12c-0.03-0.96-0.25-1.69-0.67-2.19c-0.42-0.5-1.06-0.75-1.92-0.75
		c-0.88,0-1.57,0.26-2.06,0.79c-0.5,0.53-0.77,1.24-0.82,2.15H144.67z M146.66,35.57l-3.88,5.09h-3.08l2.68-5.09H146.66z"/>
</g>
<g>
	<path class="st2" d="M63.75,21.47V10.58c0-0.82-0.71-1.45-1.53-1.38c-5.1,0.46-9.75,2.48-13.47,5.58c-0.63,0.53-0.68,1.48-0.1,2.06
		l7.7,7.7c0.48,0.48,1.22,0.54,1.77,0.15c1.31-0.93,2.84-1.58,4.49-1.86C63.27,22.71,63.75,22.14,63.75,21.47z"/>
	<path class="st3" d="M76.67,33.13h10.88c0.81,0,1.45-0.7,1.38-1.51c-0.42-5.18-2.46-9.91-5.6-13.68c-0.53-0.63-1.48-0.69-2.06-0.1
		l-7.7,7.7c-0.47,0.47-0.54,1.22-0.15,1.77c0.96,1.36,1.62,2.94,1.89,4.66C75.41,32.64,75.99,33.13,76.67,33.13z"/>
	<path class="st4" d="M72.57,24.54l7.7-7.7c0.58-0.58,0.53-1.53-0.1-2.06c-3.71-3.09-8.33-5.11-13.41-5.58
		c-0.82-0.08-1.54,0.55-1.54,1.38v10.89c0,0.67,0.48,1.24,1.14,1.35c1.63,0.28,3.14,0.93,4.45,1.85
		C71.35,25.07,72.1,25.01,72.57,24.54z"/>
	<path class="st3" d="M55.35,25.54l-7.7-7.7c-0.58-0.58-1.53-0.53-2.06,0.1c-3.14,3.77-5.17,8.49-5.6,13.68
		c-0.07,0.81,0.57,1.51,1.38,1.51h10.88c0.68,0,1.25-0.49,1.36-1.16c0.26-1.72,0.92-3.3,1.89-4.66
		C55.88,26.76,55.82,26.01,55.35,25.54z"/>
</g>
<g>
	<path class="st4" d="M100.7,70.79v10.89c0,0.82,0.72,1.45,1.54,1.38c5.08-0.47,9.71-2.49,13.41-5.58c0.63-0.53,0.68-1.48,0.1-2.06
		l-7.7-7.7c-0.48-0.48-1.22-0.54-1.77-0.15c-1.3,0.92-2.81,1.57-4.45,1.85C101.18,69.56,100.7,70.13,100.7,70.79z"/>
	<path class="st3" d="M87.79,59.52h-10.9c-0.83,0-1.46,0.72-1.38,1.54c0.49,5.03,2.5,9.6,5.56,13.28c0.53,0.63,1.48,0.68,2.06,0.1
		l7.7-7.7c0.48-0.48,0.53-1.22,0.14-1.77c-0.9-1.27-1.54-2.74-1.83-4.33C89.02,59.99,88.45,59.52,87.79,59.52z"/>
	<path class="st3" d="M110.73,60.64c-0.29,1.59-0.93,3.06-1.83,4.33c-0.39,0.55-0.33,1.3,0.14,1.77l7.7,7.7
		c0.58,0.58,1.53,0.53,2.06-0.1c3.06-3.67,5.07-8.25,5.56-13.28c0.08-0.82-0.55-1.54-1.38-1.54h-10.9
		C111.42,59.52,110.86,59.99,110.73,60.64z"/>
	<path class="st2" d="M91.82,67.74l-7.7,7.7c-0.58,0.58-0.53,1.53,0.1,2.06c3.72,3.1,8.37,5.12,13.47,5.58
		c0.82,0.07,1.53-0.56,1.53-1.38V70.8c0-0.67-0.48-1.24-1.14-1.35c-1.65-0.28-3.18-0.93-4.49-1.86
		C93.04,67.2,92.3,67.26,91.82,67.74z"/>
</g>
<text transform="matrix(1 0 0 1 172.0285 57.2592)"><tspan x="0" y="0" class="st0 st5 st6">Pose  </tspan><tspan x="104.31" y="0" class="st7 st5 st6">&amp;</tspan><tspan x="131.76" y="0" class="st0 st5 st6"> </tspan><tspan x="142.06" y="0" class="st1 st5 st6">Vente</tspan></text>
</svg>
